<svg width="563" height="613" viewBox="0 0 563 613" fill="none" xmlns="http://www.w3.org/2000/svg">
<g filter="url(#filter0_f_83_3626)">
<circle cx="306" cy="356" r="133" fill="#50A9B0" fill-opacity="0.3"/>
</g>
<path d="M172.5 269.376C175.359 269.376 178.102 268.241 180.124 266.22C182.145 264.199 183.281 261.459 183.281 258.601V140.076C183.281 137.218 182.145 134.477 180.124 132.457C178.102 130.436 175.359 129.301 172.5 129.301C169.641 129.301 166.898 130.436 164.877 132.457C162.855 134.477 161.719 137.218 161.719 140.076V258.601C161.719 261.459 162.855 264.199 164.877 266.22C166.898 268.241 169.641 269.376 172.5 269.376Z" fill="url(#paint0_linear_83_3626)"/>
<path d="M172.5 282.844C169.641 282.844 166.898 283.979 164.877 286C162.855 288.02 161.719 290.761 161.719 293.619C161.719 295.75 162.351 297.833 163.536 299.605C164.72 301.377 166.404 302.758 168.374 303.574C170.344 304.389 172.512 304.602 174.603 304.187C176.695 303.771 178.616 302.745 180.123 301.238C181.631 299.731 182.658 297.811 183.074 295.721C183.49 293.631 183.277 291.464 182.461 289.495C181.645 287.526 180.263 285.844 178.49 284.66C176.717 283.476 174.632 282.844 172.5 282.844Z" fill="url(#paint1_linear_83_3626)"/>
<path d="M172.5 53.875C129.61 53.875 88.4757 70.9033 58.1476 101.214C27.8194 131.524 10.7813 172.634 10.7812 215.5C10.7812 258.366 27.8194 299.476 58.1476 329.786C88.4757 360.097 129.61 377.125 172.5 377.125H301.875C310.453 377.125 318.68 373.719 324.745 367.657C330.811 361.595 334.219 353.373 334.219 344.8V215.5C334.219 172.634 317.181 131.524 286.852 101.214C256.524 70.9033 215.39 53.875 172.5 53.875ZM312.656 344.8C312.656 347.658 311.52 350.398 309.499 352.419C307.477 354.44 304.734 355.575 301.875 355.575H172.5C144.78 355.575 117.682 347.36 94.6334 331.968C71.5848 316.576 53.6206 294.7 43.0125 269.104C32.4044 243.509 29.6289 215.345 35.0368 188.173C40.4448 161.001 53.7934 136.042 73.3946 116.452C92.9958 96.8622 117.969 83.5213 145.157 78.1165C172.345 72.7117 200.525 75.4856 226.135 86.0876C251.746 96.6895 273.635 114.643 289.036 137.678C304.436 160.714 312.656 187.796 312.656 215.5V344.8Z" fill="url(#paint2_linear_83_3626)"/>
<rect x="203" y="326" width="186" height="62" rx="31" fill="white"/>
<path d="M244.958 353.308H247.262V364H244.958V353.308ZM255.128 364C254.684 364 254.252 363.934 253.832 363.802C253.412 363.67 253.04 363.448 252.716 363.136C252.392 362.824 252.128 362.41 251.924 361.894C251.732 361.378 251.636 360.73 251.636 359.95C251.636 358.702 251.732 357.652 251.924 356.8C252.116 355.948 252.368 355.264 252.68 354.748C253.004 354.22 253.376 353.848 253.796 353.632C254.228 353.404 254.678 353.29 255.146 353.29C255.614 353.29 256.058 353.404 256.478 353.632C256.898 353.848 257.27 354.214 257.594 354.73C257.918 355.246 258.176 355.93 258.368 356.782C258.56 357.634 258.656 358.69 258.656 359.95C258.656 360.73 258.554 361.378 258.35 361.894C258.146 362.41 257.876 362.824 257.54 363.136C257.216 363.448 256.844 363.67 256.424 363.802C256.004 363.934 255.572 364 255.128 364ZM255.146 361.822C255.494 361.822 255.788 361.642 256.028 361.282C256.28 360.922 256.406 360.298 256.406 359.41C256.406 358.798 256.382 358.24 256.334 357.736C256.286 357.232 256.214 356.8 256.118 356.44C256.022 356.08 255.89 355.804 255.722 355.612C255.566 355.408 255.374 355.306 255.146 355.306C254.894 355.306 254.684 355.408 254.516 355.612C254.36 355.804 254.234 356.08 254.138 356.44C254.042 356.8 253.97 357.232 253.922 357.736C253.886 358.24 253.868 358.804 253.868 359.428C253.868 359.872 253.898 360.25 253.958 360.562C254.03 360.862 254.12 361.108 254.228 361.3C254.348 361.48 254.486 361.612 254.642 361.696C254.798 361.78 254.966 361.822 255.146 361.822ZM266.918 353.308V364H264.65V359.266H264.146C263.69 359.266 263.27 359.206 262.886 359.086C262.502 358.954 262.172 358.768 261.896 358.528C261.62 358.276 261.398 357.97 261.23 357.61C261.074 357.238 260.996 356.806 260.996 356.314C260.996 355.366 261.266 354.628 261.806 354.1C262.358 353.572 263.132 353.308 264.128 353.308H266.918ZM263.264 356.278C263.264 356.518 263.312 356.734 263.408 356.926C263.516 357.118 263.726 357.214 264.038 357.214H264.65V355.396H264.038C263.714 355.396 263.504 355.486 263.408 355.666C263.312 355.834 263.264 356.038 263.264 356.278ZM275.918 353.308V364H273.65V359.266H273.146C272.69 359.266 272.27 359.206 271.886 359.086C271.502 358.954 271.172 358.768 270.896 358.528C270.62 358.276 270.398 357.97 270.23 357.61C270.074 357.238 269.996 356.806 269.996 356.314C269.996 355.366 270.266 354.628 270.806 354.1C271.358 353.572 272.132 353.308 273.128 353.308H275.918ZM272.264 356.278C272.264 356.518 272.312 356.734 272.408 356.926C272.516 357.118 272.726 357.214 273.038 357.214H273.65V355.396H273.038C272.714 355.396 272.504 355.486 272.408 355.666C272.312 355.834 272.264 356.038 272.264 356.278ZM284.918 353.308V364H282.65V359.266H282.146C281.69 359.266 281.27 359.206 280.886 359.086C280.502 358.954 280.172 358.768 279.896 358.528C279.62 358.276 279.398 357.97 279.23 357.61C279.074 357.238 278.996 356.806 278.996 356.314C278.996 355.366 279.266 354.628 279.806 354.1C280.358 353.572 281.132 353.308 282.128 353.308H284.918ZM281.264 356.278C281.264 356.518 281.312 356.734 281.408 356.926C281.516 357.118 281.726 357.214 282.038 357.214H282.65V355.396H282.038C281.714 355.396 281.504 355.486 281.408 355.666C281.312 355.834 281.264 356.038 281.264 356.278Z" fill="#1C4C9F"/>
<path d="M302.654 364C302.198 364 301.784 363.91 301.412 363.73C301.052 363.538 300.74 363.25 300.476 362.866C300.224 363.298 299.876 363.634 299.432 363.874C298.988 364.102 298.442 364.216 297.794 364.216C296.762 364.216 295.7 363.856 294.608 363.136C294.368 363.256 294.194 363.466 294.086 363.766C293.99 364.054 293.942 364.468 293.942 365.008V371.146H291.566V364.972C291.566 364.408 291.596 363.928 291.656 363.532C291.716 363.124 291.83 362.77 291.998 362.47C292.178 362.17 292.418 361.918 292.718 361.714C293.018 361.498 293.408 361.294 293.888 361.102C293.996 360.334 294.194 359.692 294.482 359.176C294.77 358.648 295.094 358.228 295.454 357.916C295.814 357.592 296.192 357.364 296.588 357.232C296.984 357.088 297.35 357.016 297.686 357.016C298.19 357.016 298.646 357.106 299.054 357.286C299.462 357.466 299.81 357.718 300.098 358.042C300.386 358.366 300.608 358.756 300.764 359.212C300.92 359.668 300.998 360.166 300.998 360.706C300.998 360.778 300.992 360.85 300.98 360.922C300.98 360.982 300.98 361.042 300.98 361.102C301.052 361.258 301.148 361.39 301.268 361.498C301.4 361.594 301.544 361.678 301.7 361.75C301.856 361.81 302.018 361.858 302.186 361.894C302.354 361.918 302.51 361.93 302.654 361.93C302.75 361.93 302.84 361.942 302.924 361.966C303.008 361.978 303.08 362.02 303.14 362.092C303.212 362.152 303.266 362.248 303.302 362.38C303.338 362.512 303.356 362.692 303.356 362.92C303.356 363.328 303.296 363.61 303.176 363.766C303.068 363.922 302.894 364 302.654 364ZM298.784 360.652C298.784 360.268 298.67 359.926 298.442 359.626C298.214 359.314 297.89 359.158 297.47 359.158C297.11 359.158 296.762 359.332 296.426 359.68C296.102 360.028 295.892 360.616 295.796 361.444C296.108 361.612 296.432 361.756 296.768 361.876C297.104 361.996 297.392 362.056 297.632 362.056C297.98 362.056 298.256 361.93 298.46 361.678C298.676 361.414 298.784 361.072 298.784 360.652ZM303.99 361.93C303.87 361.702 303.78 361.432 303.72 361.12C303.66 360.796 303.63 360.52 303.63 360.292C303.63 359.656 303.75 359.104 303.99 358.636C304.23 358.168 304.542 357.784 304.926 357.484C305.31 357.172 305.736 356.944 306.204 356.8C306.684 356.644 307.164 356.566 307.644 356.566C308.028 356.566 308.412 356.608 308.796 356.692C309.192 356.776 309.492 356.86 309.696 356.944V359.068C309.324 359.008 308.94 358.948 308.544 358.888C308.148 358.828 307.872 358.798 307.716 358.798C307.008 358.798 306.504 358.948 306.204 359.248C305.904 359.548 305.754 359.914 305.754 360.346C305.754 360.826 305.898 361.21 306.186 361.498C306.486 361.786 306.996 361.93 307.716 361.93H310.56V364H302.658C302.562 364 302.472 363.994 302.388 363.982C302.304 363.958 302.232 363.916 302.172 363.856C302.1 363.784 302.046 363.682 302.01 363.55C301.974 363.418 301.956 363.238 301.956 363.01C301.956 362.602 302.016 362.32 302.136 362.164C302.244 362.008 302.418 361.93 302.658 361.93H303.99ZM319.537 364C319.189 364 318.889 363.982 318.637 363.946C318.397 363.91 318.187 363.856 318.007 363.784C317.827 363.712 317.659 363.622 317.503 363.514C317.347 363.394 317.185 363.256 317.017 363.1C316.669 363.496 316.291 363.748 315.883 363.856C315.487 363.952 315.055 364 314.587 364H311.455V361.93H315.019C315.307 361.93 315.517 361.888 315.649 361.804C315.793 361.708 315.865 361.6 315.865 361.48C315.865 361.348 315.805 361.186 315.685 360.994C315.577 360.802 315.367 360.484 315.055 360.04L313.417 357.61L315.559 356.242L317.719 359.896C317.947 360.28 318.145 360.604 318.313 360.868C318.481 361.132 318.631 361.342 318.763 361.498C318.907 361.654 319.039 361.768 319.159 361.84C319.279 361.9 319.405 361.93 319.537 361.93C319.633 361.93 319.723 361.942 319.807 361.966C319.891 361.978 319.963 362.02 320.023 362.092C320.095 362.152 320.149 362.248 320.185 362.38C320.221 362.512 320.239 362.692 320.239 362.92C320.239 363.328 320.179 363.61 320.059 363.766C319.951 363.922 319.777 364 319.537 364ZM321.603 361.93V351.148H323.961V364H319.533C319.437 364 319.347 363.994 319.263 363.982C319.179 363.958 319.107 363.916 319.047 363.856C318.975 363.784 318.921 363.682 318.885 363.55C318.849 363.418 318.831 363.238 318.831 363.01C318.831 362.602 318.891 362.32 319.011 362.164C319.119 362.008 319.293 361.93 319.533 361.93H321.603ZM328.437 351.148V364H326.115V351.148H328.437ZM345.597 364C345.141 364 344.727 363.91 344.355 363.73C343.995 363.538 343.683 363.25 343.419 362.866C343.167 363.298 342.819 363.634 342.375 363.874C341.931 364.102 341.385 364.216 340.737 364.216C339.705 364.216 338.643 363.856 337.551 363.136C337.311 363.256 337.137 363.466 337.029 363.766C336.933 364.054 336.885 364.468 336.885 365.008V371.146H334.509V364.972C334.509 364.408 334.539 363.928 334.599 363.532C334.659 363.124 334.773 362.77 334.941 362.47C335.121 362.17 335.361 361.918 335.661 361.714C335.961 361.498 336.351 361.294 336.831 361.102C336.939 360.334 337.137 359.692 337.425 359.176C337.713 358.648 338.037 358.228 338.397 357.916C338.757 357.592 339.135 357.364 339.531 357.232C339.927 357.088 340.293 357.016 340.629 357.016C341.133 357.016 341.589 357.106 341.997 357.286C342.405 357.466 342.753 357.718 343.041 358.042C343.329 358.366 343.551 358.756 343.707 359.212C343.863 359.668 343.941 360.166 343.941 360.706C343.941 360.778 343.935 360.85 343.923 360.922C343.923 360.982 343.923 361.042 343.923 361.102C343.995 361.258 344.091 361.39 344.211 361.498C344.343 361.594 344.487 361.678 344.643 361.75C344.799 361.81 344.961 361.858 345.129 361.894C345.297 361.918 345.453 361.93 345.597 361.93C345.693 361.93 345.783 361.942 345.867 361.966C345.951 361.978 346.023 362.02 346.083 362.092C346.155 362.152 346.209 362.248 346.245 362.38C346.281 362.512 346.299 362.692 346.299 362.92C346.299 363.328 346.239 363.61 346.119 363.766C346.011 363.922 345.837 364 345.597 364ZM341.727 360.652C341.727 360.268 341.613 359.926 341.385 359.626C341.157 359.314 340.833 359.158 340.413 359.158C340.053 359.158 339.705 359.332 339.369 359.68C339.045 360.028 338.835 360.616 338.739 361.444C339.051 361.612 339.375 361.756 339.711 361.876C340.047 361.996 340.335 362.056 340.575 362.056C340.923 362.056 341.199 361.93 341.403 361.678C341.619 361.414 341.727 361.072 341.727 360.652ZM347.744 353.722C347.744 353.374 347.87 353.074 348.122 352.822C348.374 352.57 348.674 352.444 349.022 352.444C349.37 352.444 349.67 352.57 349.922 352.822C350.174 353.074 350.3 353.374 350.3 353.722C350.3 354.07 350.174 354.37 349.922 354.622C349.67 354.874 349.37 355 349.022 355C348.674 355 348.374 354.874 348.122 354.622C347.87 354.37 347.744 354.07 347.744 353.722ZM350.678 353.722C350.678 353.374 350.804 353.074 351.056 352.822C351.308 352.57 351.608 352.444 351.956 352.444C352.304 352.444 352.604 352.57 352.856 352.822C353.108 353.074 353.234 353.374 353.234 353.722C353.234 354.07 353.108 354.37 352.856 354.622C352.604 354.874 352.304 355 351.956 355C351.608 355 351.308 354.874 351.056 354.622C350.804 354.37 350.678 354.07 350.678 353.722ZM349.382 360.274C349.382 360.898 349.526 361.33 349.814 361.57C350.102 361.81 350.45 361.93 350.858 361.93H351.866V360.562C351.866 360.322 351.848 360.094 351.812 359.878C351.788 359.65 351.728 359.452 351.632 359.284C351.548 359.116 351.428 358.984 351.272 358.888C351.116 358.78 350.918 358.726 350.678 358.726C350.426 358.726 350.216 358.774 350.048 358.87C349.892 358.954 349.76 359.068 349.652 359.212C349.556 359.356 349.484 359.524 349.436 359.716C349.4 359.896 349.382 360.082 349.382 360.274ZM347.384 361.93C347.288 361.738 347.216 361.498 347.168 361.21C347.132 360.91 347.114 360.634 347.114 360.382C347.114 359.914 347.192 359.452 347.348 358.996C347.516 358.54 347.75 358.138 348.05 357.79C348.362 357.43 348.746 357.142 349.202 356.926C349.658 356.71 350.18 356.602 350.768 356.602C351.452 356.602 352.016 356.728 352.46 356.98C352.904 357.22 353.252 357.532 353.504 357.916C353.756 358.288 353.93 358.708 354.026 359.176C354.134 359.632 354.188 360.076 354.188 360.508V364H345.818C345.722 364 345.632 363.994 345.548 363.982C345.464 363.958 345.392 363.916 345.332 363.856C345.26 363.784 345.206 363.682 345.17 363.55C345.134 363.418 345.116 363.238 345.116 363.01C345.116 362.602 345.176 362.32 345.296 362.164C345.404 362.008 345.578 361.93 345.818 361.93H347.384ZM357.574 357.628H359.914V362.992C359.914 363.856 359.848 364.588 359.716 365.188C359.584 365.788 359.35 366.274 359.014 366.646C358.69 367.03 358.234 367.306 357.646 367.474C357.07 367.642 356.332 367.732 355.432 367.744V365.548C355.924 365.536 356.308 365.482 356.584 365.386C356.872 365.29 357.088 365.134 357.232 364.918C357.376 364.714 357.466 364.45 357.502 364.126C357.55 363.814 357.574 363.436 357.574 362.992V357.628Z" fill="#201F1E"/>
<defs>
<filter id="filter0_f_83_3626" x="49" y="99" width="514" height="514" filterUnits="userSpaceOnUse" color-interpolation-filters="sRGB">
<feFlood flood-opacity="0" result="BackgroundImageFix"/>
<feBlend mode="normal" in="SourceGraphic" in2="BackgroundImageFix" result="shape"/>
<feGaussianBlur stdDeviation="62" result="effect1_foregroundBlur_83_3626"/>
</filter>
<linearGradient id="paint0_linear_83_3626" x1="161.503" y1="199.31" x2="183.066" y2="199.377" gradientUnits="userSpaceOnUse">
<stop stop-color="#54B5A6"/>
<stop offset="1" stop-color="#3266E3"/>
</linearGradient>
<linearGradient id="paint1_linear_83_3626" x1="161.503" y1="293.614" x2="183.057" y2="294.046" gradientUnits="userSpaceOnUse">
<stop stop-color="#54B5A6"/>
<stop offset="1" stop-color="#3266E3"/>
</linearGradient>
<linearGradient id="paint2_linear_83_3626" x1="7.54817" y1="215.435" x2="330.856" y2="221.905" gradientUnits="userSpaceOnUse">
<stop stop-color="#54B5A6"/>
<stop offset="1" stop-color="#3266E3"/>
</linearGradient>
</defs>
</svg>
